# Blender v2.76 (sub 0) OBJ File: 'tore.blend'
# www.blender.org
mtllib tore.mtl
o Torus
v 0.500000 0.000000 0.000000
v 0.470711 0.070711 0.000000
v 0.400000 0.100000 0.000000
v 0.329289 0.070711 0.000000
v 0.300000 0.000000 0.000000
v 0.329289 -0.070711 0.000000
v 0.400000 -0.100000 0.000000
v 0.470711 -0.070711 0.000000
v 0.475528 0.000000 -0.154508
v 0.447672 0.070711 -0.145458
v 0.380423 0.100000 -0.123607
v 0.313173 0.070711 -0.101756
v 0.285317 0.000000 -0.092705
v 0.313173 -0.070711 -0.101756
v 0.380423 -0.100000 -0.123607
v 0.447672 -0.070711 -0.145458
v 0.404509 0.000000 -0.293893
v 0.380813 0.070711 -0.276677
v 0.323607 0.100000 -0.235114
v 0.266401 0.070711 -0.193551
v 0.242705 0.000000 -0.176336
v 0.266401 -0.070711 -0.193551
v 0.323607 -0.100000 -0.235114
v 0.380813 -0.070711 -0.276677
v 0.293893 0.000000 -0.404509
v 0.276677 0.070711 -0.380813
v 0.235114 0.100000 -0.323607
v 0.193551 0.070711 -0.266401
v 0.176336 0.000000 -0.242705
v 0.193551 -0.070711 -0.266401
v 0.235114 -0.100000 -0.323607
v 0.276677 -0.070711 -0.380813
v 0.154509 0.000000 -0.475528
v 0.145458 0.070711 -0.447672
v 0.123607 0.100000 -0.380423
v 0.101756 0.070711 -0.313173
v 0.092705 0.000000 -0.285317
v 0.101756 -0.070711 -0.313173
v 0.123607 -0.100000 -0.380423
v 0.145458 -0.070711 -0.447672
v 0.000000 0.000000 -0.500000
v 0.000000 0.070711 -0.470711
v 0.000000 0.100000 -0.400000
v 0.000000 0.070711 -0.329289
v 0.000000 0.000000 -0.300000
v 0.000000 -0.070711 -0.329289
v 0.000000 -0.100000 -0.400000
v 0.000000 -0.070711 -0.470711
v -0.154509 0.000000 -0.475528
v -0.145458 0.070711 -0.447672
v -0.123607 0.100000 -0.380423
v -0.101756 0.070711 -0.313173
v -0.092705 0.000000 -0.285317
v -0.101756 -0.070711 -0.313173
v -0.123607 -0.100000 -0.380423
v -0.145458 -0.070711 -0.447672
v -0.293893 0.000000 -0.404508
v -0.276677 0.070711 -0.380813
v -0.235114 0.100000 -0.323607
v -0.193551 0.070711 -0.266401
v -0.176336 0.000000 -0.242705
v -0.193551 -0.070711 -0.266401
v -0.235114 -0.100000 -0.323607
v -0.276677 -0.070711 -0.380813
v -0.404509 0.000000 -0.293892
v -0.380813 0.070711 -0.276677
v -0.323607 0.100000 -0.235114
v -0.266401 0.070711 -0.193551
v -0.242705 0.000000 -0.176335
v -0.266401 -0.070711 -0.193551
v -0.323607 -0.100000 -0.235114
v -0.380813 -0.070711 -0.276677
v -0.475528 0.000000 -0.154509
v -0.447672 0.070711 -0.145458
v -0.380423 0.100000 -0.123607
v -0.313173 0.070711 -0.101756
v -0.285317 0.000000 -0.092705
v -0.313173 -0.070711 -0.101756
v -0.380423 -0.100000 -0.123607
v -0.447672 -0.070711 -0.145458
v -0.500000 0.000000 -0.000000
v -0.470711 0.070711 -0.000000
v -0.400000 0.100000 -0.000000
v -0.329289 0.070711 -0.000000
v -0.300000 0.000000 -0.000000
v -0.329289 -0.070711 -0.000000
v -0.400000 -0.100000 -0.000000
v -0.470711 -0.070711 -0.000000
v -0.475528 0.000000 0.154508
v -0.447672 0.070711 0.145457
v -0.380423 0.100000 0.123607
v -0.313173 0.070711 0.101756
v -0.285317 0.000000 0.092705
v -0.313173 -0.070711 0.101756
v -0.380423 -0.100000 0.123607
v -0.447672 -0.070711 0.145457
v -0.404509 0.000000 0.293892
v -0.380813 0.070711 0.276677
v -0.323607 0.100000 0.235114
v -0.266401 0.070711 0.193551
v -0.242705 0.000000 0.176335
v -0.266401 -0.070711 0.193551
v -0.323607 -0.100000 0.235114
v -0.380813 -0.070711 0.276677
v -0.293893 0.000000 0.404508
v -0.276677 0.070711 0.380813
v -0.235114 0.100000 0.323607
v -0.193551 0.070711 0.266401
v -0.176336 0.000000 0.242705
v -0.193551 -0.070711 0.266401
v -0.235114 -0.100000 0.323607
v -0.276677 -0.070711 0.380813
v -0.154509 0.000000 0.475528
v -0.145458 0.070711 0.447672
v -0.123607 0.100000 0.380423
v -0.101756 0.070711 0.313173
v -0.092705 0.000000 0.285317
v -0.101756 -0.070711 0.313173
v -0.123607 -0.100000 0.380423
v -0.145458 -0.070711 0.447672
v 0.000000 0.000000 0.500000
v 0.000000 0.070711 0.470711
v 0.000000 0.100000 0.400000
v 0.000000 0.070711 0.329289
v 0.000000 0.000000 0.300000
v 0.000000 -0.070711 0.329289
v 0.000000 -0.100000 0.400000
v 0.000000 -0.070711 0.470711
v 0.154509 0.000000 0.475528
v 0.145458 0.070711 0.447672
v 0.123607 0.100000 0.380423
v 0.101756 0.070711 0.313173
v 0.092705 0.000000 0.285317
v 0.101756 -0.070711 0.313173
v 0.123607 -0.100000 0.380423
v 0.145458 -0.070711 0.447672
v 0.293892 0.000000 0.404509
v 0.276677 0.070711 0.380813
v 0.235114 0.100000 0.323607
v 0.193551 0.070711 0.266401
v 0.176335 0.000000 0.242705
v 0.193551 -0.070711 0.266401
v 0.235114 -0.100000 0.323607
v 0.276677 -0.070711 0.380813
v 0.404508 0.000000 0.293893
v 0.380813 0.070711 0.276677
v 0.323607 0.100000 0.235114
v 0.266401 0.070711 0.193552
v 0.242705 0.000000 0.176336
v 0.266401 -0.070711 0.193552
v 0.323607 -0.100000 0.235114
v 0.380813 -0.070711 0.276677
v 0.475528 0.000000 0.154509
v 0.447672 0.070711 0.145458
v 0.380423 0.100000 0.123607
v 0.313173 0.070711 0.101756
v 0.285317 0.000000 0.092705
v 0.313173 -0.070711 0.101756
v 0.380423 -0.100000 0.123607
v 0.447672 -0.070711 0.145458
vn 0.914100 0.378700 -0.144800
vn 0.382000 0.922200 -0.060500
vn -0.382000 0.922200 0.060500
vn -0.914100 0.378700 0.144800
vn -0.914100 -0.378700 0.144800
vn -0.382000 -0.922200 0.060500
vn 0.382000 -0.922200 -0.060500
vn 0.914100 -0.378700 -0.144800
vn 0.824700 0.378700 -0.420200
vn 0.344600 0.922200 -0.175600
vn -0.344600 0.922200 0.175600
vn -0.824700 0.378700 0.420200
vn -0.824700 -0.378700 0.420200
vn -0.344600 -0.922200 0.175600
vn 0.344600 -0.922200 -0.175600
vn 0.824700 -0.378700 -0.420200
vn 0.654500 0.378700 -0.654500
vn 0.273500 0.922200 -0.273500
vn -0.273500 0.922200 0.273500
vn -0.654500 0.378700 0.654500
vn -0.654500 -0.378700 0.654500
vn -0.273500 -0.922200 0.273500
vn 0.273500 -0.922200 -0.273500
vn 0.654500 -0.378700 -0.654500
vn 0.420200 0.378700 -0.824700
vn 0.175600 0.922200 -0.344600
vn -0.175600 0.922200 0.344600
vn -0.420200 0.378700 0.824700
vn -0.420200 -0.378700 0.824700
vn -0.175600 -0.922200 0.344600
vn 0.175600 -0.922200 -0.344600
vn 0.420200 -0.378700 -0.824700
vn 0.144800 0.378700 -0.914100
vn 0.060500 0.922200 -0.382000
vn -0.060500 0.922200 0.382000
vn -0.144800 0.378700 0.914100
vn -0.144800 -0.378700 0.914100
vn -0.060500 -0.922200 0.382000
vn 0.060500 -0.922200 -0.382000
vn 0.144800 -0.378700 -0.914100
vn -0.144800 0.378700 -0.914100
vn -0.060500 0.922200 -0.382000
vn 0.060500 0.922200 0.382000
vn 0.144800 0.378700 0.914100
vn 0.144800 -0.378700 0.914100
vn 0.060500 -0.922200 0.382000
vn -0.060500 -0.922200 -0.382000
vn -0.144800 -0.378700 -0.914100
vn -0.420200 0.378700 -0.824700
vn -0.175600 0.922200 -0.344600
vn 0.175600 0.922200 0.344600
vn 0.420200 0.378700 0.824700
vn 0.420200 -0.378700 0.824700
vn 0.175600 -0.922200 0.344600
vn -0.175600 -0.922200 -0.344600
vn -0.420200 -0.378700 -0.824700
vn -0.654500 0.378700 -0.654500
vn -0.273500 0.922200 -0.273500
vn 0.273500 0.922200 0.273500
vn 0.654500 0.378700 0.654500
vn 0.654500 -0.378700 0.654500
vn 0.273500 -0.922200 0.273500
vn -0.273500 -0.922200 -0.273500
vn -0.654500 -0.378700 -0.654500
vn -0.824700 0.378700 -0.420200
vn -0.344600 0.922200 -0.175600
vn 0.344600 0.922200 0.175600
vn 0.824700 0.378700 0.420200
vn 0.824700 -0.378700 0.420200
vn 0.344600 -0.922200 0.175600
vn -0.344600 -0.922200 -0.175600
vn -0.824700 -0.378700 -0.420200
vn -0.914100 0.378700 -0.144800
vn -0.382000 0.922200 -0.060500
vn 0.382000 0.922200 0.060500
vn 0.914100 0.378700 0.144800
vn 0.914100 -0.378700 0.144800
vn 0.382000 -0.922200 0.060500
vn -0.382000 -0.922200 -0.060500
vn -0.914100 -0.378700 -0.144800
usemtl None
s off
f 1//1 9//1 10//1 2//1
f 2//2 10//2 11//2 3//2
f 3//3 11//3 12//3 4//3
f 4//4 12//4 13//4 5//4
f 5//5 13//5 14//5 6//5
f 6//6 14//6 15//6 7//6
f 7//7 15//7 16//7 8//7
f 1//8 8//8 16//8 9//8
f 9//9 17//9 18//9 10//9
f 10//10 18//10 19//10 11//10
f 11//11 19//11 20//11 12//11
f 12//12 20//12 21//12 13//12
f 13//13 21//13 22//13 14//13
f 14//14 22//14 23//14 15//14
f 15//15 23//15 24//15 16//15
f 16//16 24//16 17//16 9//16
f 17//17 25//17 26//17 18//17
f 18//18 26//18 27//18 19//18
f 19//19 27//19 28//19 20//19
f 20//20 28//20 29//20 21//20
f 21//21 29//21 30//21 22//21
f 22//22 30//22 31//22 23//22
f 23//23 31//23 32//23 24//23
f 24//24 32//24 25//24 17//24
f 25//25 33//25 34//25 26//25
f 26//26 34//26 35//26 27//26
f 27//27 35//27 36//27 28//27
f 28//28 36//28 37//28 29//28
f 29//29 37//29 38//29 30//29
f 30//30 38//30 39//30 31//30
f 31//31 39//31 40//31 32//31
f 32//32 40//32 33//32 25//32
f 33//33 41//33 42//33 34//33
f 34//34 42//34 43//34 35//34
f 35//35 43//35 44//35 36//35
f 36//36 44//36 45//36 37//36
f 37//37 45//37 46//37 38//37
f 38//38 46//38 47//38 39//38
f 39//39 47//39 48//39 40//39
f 40//40 48//40 41//40 33//40
f 41//41 49//41 50//41 42//41
f 42//42 50//42 51//42 43//42
f 43//43 51//43 52//43 44//43
f 44//44 52//44 53//44 45//44
f 45//45 53//45 54//45 46//45
f 46//46 54//46 55//46 47//46
f 47//47 55//47 56//47 48//47
f 48//48 56//48 49//48 41//48
f 49//49 57//49 58//49 50//49
f 50//50 58//50 59//50 51//50
f 51//51 59//51 60//51 52//51
f 52//52 60//52 61//52 53//52
f 53//53 61//53 62//53 54//53
f 54//54 62//54 63//54 55//54
f 55//55 63//55 64//55 56//55
f 56//56 64//56 57//56 49//56
f 57//57 65//57 66//57 58//57
f 58//58 66//58 67//58 59//58
f 59//59 67//59 68//59 60//59
f 60//60 68//60 69//60 61//60
f 61//61 69//61 70//61 62//61
f 62//62 70//62 71//62 63//62
f 63//63 71//63 72//63 64//63
f 64//64 72//64 65//64 57//64
f 65//65 73//65 74//65 66//65
f 66//66 74//66 75//66 67//66
f 67//67 75//67 76//67 68//67
f 68//68 76//68 77//68 69//68
f 69//69 77//69 78//69 70//69
f 70//70 78//70 79//70 71//70
f 71//71 79//71 80//71 72//71
f 72//72 80//72 73//72 65//72
f 73//73 81//73 82//73 74//73
f 74//74 82//74 83//74 75//74
f 75//75 83//75 84//75 76//75
f 76//76 84//76 85//76 77//76
f 77//77 85//77 86//77 78//77
f 78//78 86//78 87//78 79//78
f 79//79 87//79 88//79 80//79
f 80//80 88//80 81//80 73//80
f 81//4 89//4 90//4 82//4
f 82//3 90//3 91//3 83//3
f 83//2 91//2 92//2 84//2
f 84//1 92//1 93//1 85//1
f 85//8 93//8 94//8 86//8
f 86//7 94//7 95//7 87//7
f 87//6 95//6 96//6 88//6
f 88//5 96//5 89//5 81//5
f 89//12 97//12 98//12 90//12
f 90//11 98//11 99//11 91//11
f 91//10 99//10 100//10 92//10
f 92//9 100//9 101//9 93//9
f 93//16 101//16 102//16 94//16
f 94//15 102//15 103//15 95//15
f 95//14 103//14 104//14 96//14
f 96//13 104//13 97//13 89//13
f 97//20 105//20 106//20 98//20
f 98//19 106//19 107//19 99//19
f 99//18 107//18 108//18 100//18
f 100//17 108//17 109//17 101//17
f 101//24 109//24 110//24 102//24
f 102//23 110//23 111//23 103//23
f 103//22 111//22 112//22 104//22
f 104//21 112//21 105//21 97//21
f 105//28 113//28 114//28 106//28
f 106//27 114//27 115//27 107//27
f 107//26 115//26 116//26 108//26
f 108//25 116//25 117//25 109//25
f 109//32 117//32 118//32 110//32
f 110//31 118//31 119//31 111//31
f 111//30 119//30 120//30 112//30
f 112//29 120//29 113//29 105//29
f 113//36 121//36 122//36 114//36
f 114//35 122//35 123//35 115//35
f 115//34 123//34 124//34 116//34
f 116//33 124//33 125//33 117//33
f 117//40 125//40 126//40 118//40
f 118//39 126//39 127//39 119//39
f 119//38 127//38 128//38 120//38
f 120//37 128//37 121//37 113//37
f 121//44 129//44 130//44 122//44
f 122//43 130//43 131//43 123//43
f 123//42 131//42 132//42 124//42
f 124//41 132//41 133//41 125//41
f 125//48 133//48 134//48 126//48
f 126//47 134//47 135//47 127//47
f 127//46 135//46 136//46 128//46
f 128//45 136//45 129//45 121//45
f 129//52 137//52 138//52 130//52
f 130//51 138//51 139//51 131//51
f 131//50 139//50 140//50 132//50
f 132//49 140//49 141//49 133//49
f 133//56 141//56 142//56 134//56
f 134//55 142//55 143//55 135//55
f 135//54 143//54 144//54 136//54
f 136//53 144//53 137//53 129//53
f 137//60 145//60 146//60 138//60
f 138//59 146//59 147//59 139//59
f 139//58 147//58 148//58 140//58
f 140//57 148//57 149//57 141//57
f 141//64 149//64 150//64 142//64
f 142//63 150//63 151//63 143//63
f 143//62 151//62 152//62 144//62
f 144//61 152//61 145//61 137//61
f 145//68 153//68 154//68 146//68
f 146//67 154//67 155//67 147//67
f 147//66 155//66 156//66 148//66
f 148//65 156//65 157//65 149//65
f 149//72 157//72 158//72 150//72
f 150//71 158//71 159//71 151//71
f 151//70 159//70 160//70 152//70
f 152//69 160//69 153//69 145//69
f 153//76 1//76 2//76 154//76
f 154//75 2//75 3//75 155//75
f 155//74 3//74 4//74 156//74
f 156//73 4//73 5//73 157//73
f 157//80 5//80 6//80 158//80
f 158//79 6//79 7//79 159//79
f 159//78 7//78 8//78 160//78
f 160//77 8//77 1//77 153//77
