# Blender v2.76 (sub 0) OBJ File: 'tetris_traingulaire.blend'
# www.blender.org
mtllib tetris_traingulaire.mtl
o Cube
v -0.250000 -0.250000 0.250000
v -0.250000 0.250000 0.250000
v -0.250000 -0.250000 -0.250000
v -0.250000 0.250000 -0.250000
v 0.250000 -0.250000 0.250000
v 0.250000 0.250000 0.250000
v 0.250000 -0.250000 -0.250000
v 0.250000 0.250000 -0.250000
v -0.250000 -0.250000 0.750000
v -0.250000 0.250000 0.750000
v 0.250000 0.250000 0.750000
v 0.250000 -0.250000 0.750000
v -0.750000 -0.250000 0.250000
v -0.750000 0.250000 0.250000
v -0.750000 0.250000 -0.250000
v -0.750000 -0.250000 -0.250000
v -0.250000 0.750000 0.250000
v -0.250000 0.750000 -0.250000
v 0.250000 0.750000 -0.250000
v 0.250000 0.750000 0.250000
v 0.000000 0.250000 -0.250000
v 0.000000 -0.250000 -0.250000
v 0.000000 0.250000 0.250000
v 0.000000 -0.250000 0.250000
v 0.000000 0.250000 0.750000
v 0.000000 -0.250000 0.750000
v 0.000000 0.750000 -0.250000
v 0.000000 0.750000 0.250000
v -0.250000 0.250000 0.000000
v -0.250000 -0.250000 0.000000
v 0.250000 0.250000 0.000000
v 0.250000 -0.250000 0.000000
v -0.750000 0.250000 0.000000
v -0.750000 -0.250000 0.000000
v -0.250000 0.750000 0.000000
v 0.250000 0.750000 0.000000
v 0.000000 0.750000 0.000000
v 0.000000 -0.250000 0.000000
v -0.250000 0.000000 0.250000
v -0.250000 0.000000 -0.250000
v 0.250000 0.000000 -0.250000
v 0.250000 0.000000 0.250000
v -0.250000 0.000000 0.750000
v 0.250000 0.000000 0.750000
v -0.750000 0.000000 0.250000
v -0.750000 0.000000 -0.250000
v 0.000000 0.000000 0.750000
v 0.000000 0.000000 -0.250000
v -0.750000 0.000000 0.000000
v 0.250000 0.000000 0.000000
v -0.250000 0.250000 0.500000
v 0.250000 0.250000 0.500000
v 0.250000 -0.250000 0.500000
v -0.250000 -0.250000 0.500000
v 0.000000 -0.250000 0.500000
v 0.000000 0.250000 0.500000
v -0.250000 0.000000 0.500000
v 0.250000 0.000000 0.500000
v -0.500000 -0.250000 -0.250000
v -0.500000 0.250000 -0.250000
v -0.500000 0.250000 0.250000
v -0.500000 -0.250000 0.250000
v -0.500000 0.250000 0.000000
v -0.500000 -0.250000 0.000000
v -0.500000 0.000000 0.250000
v -0.500000 0.000000 -0.250000
v 0.250000 0.500000 0.250000
v -0.250000 0.500000 0.250000
v -0.250000 0.500000 -0.250000
v 0.250000 0.500000 -0.250000
v 0.000000 0.500000 -0.250000
v 0.000000 0.500000 0.250000
v -0.250000 0.500000 0.000000
v 0.250000 0.500000 0.000000
vn 0.000000 0.000000 -1.000000
vn 1.000000 0.000000 0.000000
vn 0.000000 1.000000 0.000000
vn 0.000000 -1.000000 0.000000
vn 0.000000 0.000000 1.000000
vn -1.000000 0.000000 0.000000
usemtl None
s off
f 59//1 16//1 46//1
f 41//1 7//1 22//1
f 42//2 5//2 32//2
f 51//3 10//3 25//3
f 22//4 7//4 32//4
f 67//5 20//5 28//5
f 43//5 9//5 26//5
f 52//2 11//2 44//2
f 54//6 9//6 43//6
f 53//4 12//4 26//4
f 46//6 16//6 34//6
f 61//5 14//5 45//5
f 62//4 13//4 34//4
f 60//3 15//3 33//3
f 27//3 18//3 35//3
f 69//1 18//1 27//1
f 70//2 19//2 36//2
f 68//6 17//6 35//6
f 71//1 27//1 19//1
f 19//3 27//3 37//3
f 55//4 26//4 9//4
f 47//5 26//5 12//5
f 72//5 28//5 17//5
f 3//4 22//4 38//4
f 56//3 25//3 11//3
f 48//1 22//1 3//1
f 30//4 38//4 24//4
f 36//3 37//3 28//3
f 73//6 35//6 18//6
f 74//2 36//2 20//2
f 37//3 35//3 17//3
f 63//3 33//3 14//3
f 64//4 34//4 16//4
f 49//6 34//6 13//6
f 38//4 32//4 5//4
f 50//2 32//2 7//2
f 31//2 50//2 41//2
f 33//6 49//6 45//6
f 21//1 48//1 40//1
f 25//5 47//5 44//5
f 65//5 45//5 13//5
f 15//6 46//6 49//6
f 57//6 43//6 10//6
f 58//2 44//2 12//2
f 10//5 43//5 47//5
f 6//2 42//2 50//2
f 8//1 41//1 48//1
f 66//1 46//1 15//1
f 42//2 58//2 53//2
f 39//6 57//6 51//6
f 23//3 56//3 52//3
f 24//4 55//4 54//4
f 5//4 53//4 55//4
f 1//6 54//6 57//6
f 6//2 52//2 58//2
f 2//3 51//3 56//3
f 40//1 66//1 60//1
f 39//5 65//5 62//5
f 30//4 64//4 59//4
f 29//3 63//3 61//3
f 4//3 60//3 63//3
f 1//4 62//4 64//4
f 2//5 61//5 65//5
f 3//1 59//1 66//1
f 31//2 74//2 67//2
f 29//6 73//6 69//6
f 23//5 72//5 68//5
f 21//1 71//1 70//1
f 2//6 68//6 73//6
f 8//2 70//2 74//2
f 4//1 69//1 71//1
f 6//5 67//5 72//5
f 66//1 59//1 46//1
f 48//1 41//1 22//1
f 50//2 42//2 32//2
f 56//3 51//3 25//3
f 38//4 22//4 32//4
f 72//5 67//5 28//5
f 47//5 43//5 26//5
f 58//2 52//2 44//2
f 57//6 54//6 43//6
f 55//4 53//4 26//4
f 49//6 46//6 34//6
f 65//5 61//5 45//5
f 64//4 62//4 34//4
f 63//3 60//3 33//3
f 37//3 27//3 35//3
f 71//1 69//1 27//1
f 74//2 70//2 36//2
f 73//6 68//6 35//6
f 70//1 71//1 19//1
f 36//3 19//3 37//3
f 54//4 55//4 9//4
f 44//5 47//5 12//5
f 68//5 72//5 17//5
f 30//4 3//4 38//4
f 52//3 56//3 11//3
f 40//1 48//1 3//1
f 1//4 30//4 24//4
f 20//3 36//3 28//3
f 69//6 73//6 18//6
f 67//2 74//2 20//2
f 28//3 37//3 17//3
f 61//3 63//3 14//3
f 59//4 64//4 16//4
f 45//6 49//6 13//6
f 24//4 38//4 5//4
f 41//2 50//2 7//2
f 8//2 31//2 41//2
f 14//6 33//6 45//6
f 4//1 21//1 40//1
f 11//5 25//5 44//5
f 62//5 65//5 13//5
f 33//6 15//6 49//6
f 51//6 57//6 10//6
f 53//2 58//2 12//2
f 25//5 10//5 47//5
f 31//2 6//2 50//2
f 21//1 8//1 48//1
f 60//1 66//1 15//1
f 5//2 42//2 53//2
f 2//6 39//6 51//6
f 6//3 23//3 52//3
f 1//4 24//4 54//4
f 24//4 5//4 55//4
f 39//6 1//6 57//6
f 42//2 6//2 58//2
f 23//3 2//3 56//3
f 4//1 40//1 60//1
f 1//5 39//5 62//5
f 3//4 30//4 59//4
f 2//3 29//3 61//3
f 29//3 4//3 63//3
f 30//4 1//4 64//4
f 39//5 2//5 65//5
f 40//1 3//1 66//1
f 6//2 31//2 67//2
f 4//6 29//6 69//6
f 2//5 23//5 68//5
f 8//1 21//1 70//1
f 29//6 2//6 73//6
f 31//2 8//2 74//2
f 21//1 4//1 71//1
f 23//5 6//5 72//5
