# Blender v2.76 (sub 0) OBJ File: 'tetris.blend'
# www.blender.org
mtllib tetris.mtl
o tetris
v -0.500000 0.000000 -0.250000
v -0.500000 -0.250000 -0.250000
v -0.750000 -0.250000 -0.250000
v -0.750000 0.000000 -0.250000
v 0.000000 0.250000 0.500000
v -0.250000 0.250000 0.500000
v -0.250000 0.250000 0.750000
v 0.000000 0.250000 0.750000
v 0.000000 0.500000 0.250000
v 0.250000 0.500000 0.250000
v 0.250000 0.750000 0.250000
v 0.000000 0.750000 0.250000
v 0.000000 -0.000000 0.750000
v -0.250000 -0.000000 0.750000
v -0.250000 -0.250000 0.750000
v 0.000000 -0.250000 0.750000
v 0.250000 -0.000000 0.500000
v 0.250000 0.250000 0.500000
v 0.250000 0.250000 0.750000
v 0.250000 -0.000000 0.750000
v -0.250000 -0.000000 0.500000
v -0.250000 -0.250000 0.500000
v 0.000000 -0.250000 0.500000
v 0.250000 -0.250000 0.500000
v 0.250000 -0.250000 0.750000
v -0.750000 0.000000 0.000000
v -0.750000 -0.250000 -0.000000
v -0.500000 -0.000000 0.250000
v -0.500000 0.250000 0.250000
v -0.750000 0.250000 0.250000
v -0.750000 -0.000000 0.250000
v -0.500000 -0.250000 -0.000000
v -0.500000 -0.250000 0.250000
v -0.750000 -0.250000 0.250000
v -0.500000 0.250000 0.000000
v -0.500000 0.250000 -0.250000
v -0.750000 0.250000 -0.250000
v -0.750000 0.250000 0.000000
v 0.000000 0.750000 0.000000
v 0.000000 0.750000 -0.250000
v -0.250000 0.750000 -0.250000
v -0.250000 0.750000 0.000000
v 0.000000 0.500000 -0.250000
v -0.250000 0.500000 -0.250000
v 0.250000 0.500000 0.000000
v 0.250000 0.500000 -0.250000
v 0.250000 0.750000 -0.250000
v 0.250000 0.750000 0.000000
v -0.250000 0.500000 0.000000
v -0.250000 0.500000 0.250000
v -0.250000 0.750000 0.250000
v 0.250000 -0.250000 0.250000
v 0.250000 -0.000000 0.250000
v -0.250000 0.250000 0.250000
v -0.250000 -0.000000 0.250000
v 0.250000 0.250000 0.250000
v 0.000000 0.250000 0.250000
v -0.250000 -0.250000 0.250000
v 0.000000 -0.250000 0.250000
v -0.250000 0.250000 -0.250000
v -0.250000 0.000000 -0.250000
v -0.250000 -0.250000 -0.250000
v -0.250000 -0.250000 -0.000000
v -0.250000 0.250000 0.000000
v 0.250000 0.250000 0.000000
v 0.250000 0.250000 -0.250000
v 0.000000 0.250000 -0.250000
v 0.000000 0.000000 -0.250000
v 0.250000 0.000000 -0.250000
v 0.250000 -0.250000 -0.250000
v 0.000000 -0.250000 -0.250000
v 0.250000 0.000000 0.000000
v 0.250000 -0.250000 -0.000000
v 0.000000 -0.250000 -0.000000
vt 0.322241 0.482546
vt 0.322981 0.532846
vt 0.287168 0.528356
vt 0.276610 0.495056
vt 0.719858 0.816598
vt 0.761202 0.981160
vt 0.570332 0.973424
vt 0.611339 0.841684
vt 0.777142 0.435437
vt 0.699377 0.475910
vt 0.676332 0.423697
vt 0.713875 0.374872
vt 0.548309 0.813392
vt 0.498772 0.862378
vt 0.482346 0.803956
vt 0.510172 0.779415
vt 0.581082 0.710519
vt 0.650982 0.727862
vt 0.610962 0.778525
vt 0.570195 0.765154
vt 0.414366 0.875538
vt 0.428618 0.791927
vt 0.475867 0.741751
vt 0.522856 0.716697
vt 0.536794 0.755323
vt 0.234575 0.512730
vt 0.262652 0.550056
vt 0.160717 0.644829
vt 0.021471 0.606864
vt 0.109718 0.470742
vt 0.185026 0.551952
vt 0.301518 0.582593
vt 0.256766 0.629357
vt 0.233689 0.574177
vt 0.235642 0.380571
vt 0.298614 0.422891
vt 0.265656 0.463189
vt 0.214900 0.453033
vt 0.644271 0.364209
vt 0.592583 0.374738
vt 0.579165 0.335139
vt 0.629106 0.297495
vt 0.542464 0.396775
vt 0.516955 0.333296
vt 0.628143 0.466287
vt 0.580103 0.441005
vt 0.603792 0.407348
vt 0.639388 0.415335
vt 0.545116 0.228198
vt 0.646992 0.097501
vt 0.757801 0.249230
vt 0.871345 0.348922
vt 0.133778 0.347694
vt 0.424012 0.999902
vt 0.505804 0.661685
vt 0.575252 0.639985
vt 0.289345 0.992069
vt 0.297179 0.857402
vt 0.705341 0.598312
vt 0.857765 0.716701
vt 0.335429 0.726943
vt 0.441020 0.683559
vt 0.952187 0.901173
vt 0.390535 0.367410
vt 0.386421 0.478350
vt 0.178782 0.791899
vt 0.375454 0.543771
vt 0.360525 0.610366
vt 0.183524 0.239410
vt 0.291808 0.289156
vt 0.000098 0.784357
vt 0.597934 0.529777
vt 0.387574 0.182826
vt 0.952187 0.462875
vt 0.838234 0.543716
vt 0.541996 0.485275
vt 0.488005 0.439692
vt 0.471250 0.000098
vt 0.452890 0.501233
vt 0.503281 0.530222
vt 0.478455 0.563904
vt 0.432887 0.555474
vt 0.544008 0.577374
vt 0.488295 0.605367
vt 0.430542 0.613633
vn 0.000000 0.000000 -1.000000
vn 0.000000 1.000000 0.000000
vn 0.000000 -0.000000 1.000000
vn 1.000000 -0.000000 0.000000
vn -1.000000 0.000000 0.000000
vn 0.000000 -1.000000 -0.000000
usemtl Material
s 1
f 1/1/1 2/2/1 3/3/1 4/4/1
f 5/5/2 6/6/2 7/7/2 8/8/2
f 9/9/3 10/10/3 11/11/3 12/12/3
f 13/13/3 14/14/3 15/15/3 16/16/3
f 17/17/4 18/18/4 19/19/4 20/20/4
f 21/21/5 22/22/5 15/15/5 14/14/5
f 23/23/6 24/24/6 25/25/6 16/16/6
f 26/26/5 4/4/5 3/3/5 27/27/5
f 28/28/3 29/29/3 30/30/3 31/31/3
f 32/32/6 33/33/6 34/34/6 27/27/6
f 35/35/2 36/36/2 37/37/2 38/38/2
f 39/39/2 40/40/2 41/41/2 42/42/2
f 43/43/1 44/44/1 41/41/1 40/40/1
f 45/45/4 46/46/4 47/47/4 48/48/4
f 49/49/5 50/50/5 51/51/5 42/42/5
f 46/46/1 43/43/1 40/40/1 47/47/1
f 48/48/2 47/47/2 40/40/2 39/39/2
f 22/22/6 23/23/6 16/16/6 15/15/6
f 20/20/3 13/13/3 16/16/3 25/25/3
f 50/52/3 9/9/3 12/12/3 51/51/3
f 18/18/2 5/5/2 8/8/2 19/19/2
f 11/11/2 48/48/2 39/39/2 12/12/2
f 44/44/5 49/49/5 42/42/5 41/41/5
f 10/10/4 45/45/4 48/48/4 11/11/4
f 12/12/2 39/39/2 42/42/2 51/51/2
f 29/53/2 35/35/2 38/38/2 30/30/2
f 2/2/6 32/32/6 27/27/6 3/3/6
f 31/31/5 26/26/5 27/27/5 34/34/5
f 30/30/5 38/38/5 26/26/5 31/31/5
f 19/19/3 8/8/3 13/13/3 20/20/3
f 33/33/3 28/28/3 31/31/3 34/34/3
f 38/38/5 37/37/5 4/4/5 26/26/5
f 6/54/5 21/21/5 14/14/5 7/7/5
f 24/24/4 17/17/4 20/20/4 25/25/4
f 8/8/3 7/7/3 14/14/3 13/13/3
f 36/36/1 1/1/1 4/4/1 37/37/1
f 52/55/4 53/56/4 17/17/4 24/24/4
f 54/57/5 55/58/5 21/21/5 6/54/5
f 56/59/2 57/60/2 5/5/2 18/18/2
f 58/61/6 59/62/6 23/23/6 22/22/6
f 59/62/6 52/55/6 24/24/6 23/23/6
f 55/58/5 58/61/5 22/22/5 21/21/5
f 53/56/4 56/59/4 18/18/4 17/17/4
f 57/60/2 54/63/2 6/6/2 5/5/2
f 60/64/1 61/65/1 1/1/1 36/36/1
f 58/61/3 55/66/3 28/28/3 33/33/3
f 62/67/6 63/68/6 32/32/6 2/2/6
f 54/69/2 64/70/2 35/35/2 29/53/2
f 64/70/2 60/64/2 36/36/2 35/35/2
f 63/68/6 58/61/6 33/33/6 32/32/6
f 55/66/3 54/71/3 29/29/3 28/28/3
f 61/65/1 62/67/1 2/2/1 1/1/1
f 56/59/4 65/72/4 45/45/4 10/10/4
f 60/64/5 64/73/5 49/49/5 44/44/5
f 54/74/3 57/75/3 9/9/3 50/52/3
f 66/76/1 67/77/1 43/43/1 46/46/1
f 64/73/5 54/78/5 50/50/5 49/49/5
f 65/72/4 66/76/4 46/46/4 45/45/4
f 67/77/1 60/64/1 44/44/1 43/43/1
f 57/75/3 56/59/3 10/10/3 9/9/3
f 68/79/1 69/80/1 70/81/1 71/82/1
f 72/83/4 53/56/4 52/55/4 73/84/4
f 74/85/6 71/82/6 70/81/6 73/84/6
f 63/68/6 62/67/6 71/82/6 74/85/6
f 61/65/1 68/79/1 71/82/1 62/67/1
f 58/61/6 63/68/6 74/85/6 59/62/6
f 59/62/6 74/85/6 73/84/6 52/55/6
f 69/80/4 72/83/4 73/84/4 70/81/4
f 66/76/4 65/72/4 72/83/4 69/80/4
f 60/64/1 67/77/1 68/79/1 61/65/1
f 65/72/4 56/59/4 53/56/4 72/83/4
f 67/77/1 66/76/1 69/80/1 68/79/1
